<svg xmlns="http://www.w3.org/2000/svg" viewBox="0 0 640 640"><!--! Font Awesome Free 7.0.0 by @fontawesome - https://fontawesome.com License - https://fontawesome.com/license/free (Icons: CC BY 4.0, Fonts: SIL OFL 1.1, Code: MIT License) Copyright 2025 Fonticons, Inc. --><path fill="currentColor" d="M160 144C151.2 144 144 151.2 144 160L144 480C144 488.8 151.2 496 160 496L480 496C488.8 496 496 488.8 496 480L496 160C496 151.2 488.8 144 480 144L160 144zM96 160C96 124.7 124.7 96 160 96L480 96C515.3 96 544 124.7 544 160L544 480C544 515.3 515.3 544 480 544L160 544C124.7 544 96 515.3 96 480L96 160zM404.4 268.7L324.4 396.7C320.2 403.4 313 407.6 305.1 408C297.2 408.4 289.6 404.8 284.9 398.4L236.9 334.4C228.9 323.8 231.1 308.8 241.7 300.8C252.3 292.8 267.3 295 275.3 305.6L302.3 341.6L363.7 243.3C370.7 232.1 385.5 228.6 396.8 235.7C408.1 242.8 411.5 257.5 404.4 268.8z"/></svg>