<svg xmlns="http://www.w3.org/2000/svg" viewBox="0 0 640 640"><!--! Font Awesome Free 7.0.0 by @fontawesome - https://fontawesome.com License - https://fontawesome.com/license/free (Icons: CC BY 4.0, Fonts: SIL OFL 1.1, Code: MIT License) Copyright 2025 Fonticons, Inc. --><path fill="currentColor" d="M128 160C128 124.7 156.7 96 192 96L448 96C483.3 96 512 124.7 512 160L512 384C512 419.3 483.3 448 448 448L192 448C156.7 448 128 419.3 128 384L128 160zM396.7 179.6C385.5 172.6 370.7 176 363.6 187.2L302.2 285.5L275.2 249.5C267.2 238.9 252.2 236.7 241.6 244.7C231 252.7 228.8 267.7 236.8 278.3L284.8 342.3C289.5 348.6 297.1 352.2 305 351.9C312.9 351.6 320.1 347.4 324.3 340.6L404.3 212.6C411.3 201.4 407.9 186.6 396.7 179.5zM80 376L80 480C80 488.8 87.2 496 96 496L544 496C552.8 496 560 488.8 560 480L560 376C560 362.7 570.7 352 584 352C597.3 352 608 362.7 608 376L608 480C608 515.3 579.3 544 544 544L96 544C60.7 544 32 515.3 32 480L32 376C32 362.7 42.7 352 56 352C69.3 352 80 362.7 80 376z"/></svg>