<svg xmlns="http://www.w3.org/2000/svg" viewBox="0 0 640 640"><!--! Font Awesome Free 7.0.0 by @fontawesome - https://fontawesome.com License - https://fontawesome.com/license/free (Icons: CC BY 4.0, Fonts: SIL OFL 1.1, Code: MIT License) Copyright 2025 Fonticons, Inc. --><path fill="currentColor" d="M320 576C461.4 576 576 461.4 576 320C576 178.6 461.4 64 320 64C178.6 64 64 178.6 64 320C64 461.4 178.6 576 320 576zM320 200C333.3 200 344 210.7 344 224L344 336C344 349.3 333.3 360 320 360C306.7 360 296 349.3 296 336L296 224C296 210.7 306.7 200 320 200zM293.3 416C292.7 406.1 297.6 396.7 306.1 391.5C314.6 386.4 325.3 386.4 333.8 391.5C342.3 396.7 347.2 406.1 346.6 416C347.2 425.9 342.3 435.3 333.8 440.5C325.3 445.6 314.6 445.6 306.1 440.5C297.6 435.3 292.7 425.9 293.3 416z"/></svg>