<svg xmlns="http://www.w3.org/2000/svg" viewBox="0 0 640 640"><!--! Font Awesome Free 7.0.0 by @fontawesome - https://fontawesome.com License - https://fontawesome.com/license/free (Icons: CC BY 4.0, Fonts: SIL OFL 1.1, Code: MIT License) Copyright 2025 Fonticons, Inc. --><path fill="currentColor" d="M64 128C51.1 128 39.4 135.8 34.4 147.8L305.6 572.6C313.8 576.7 323.5 577.2 332.2 573.6C341.3 569.8 348 562.1 350.7 553C377.1 586.5 418 608.1 464 608.1C543.5 608.1 608 543.6 608 464.1C608 384.6 543.5 320 464 320C418.8 320 378.4 340.9 352 373.5L352 365.3L534.6 182.7C543.8 173.5 546.5 159.8 541.5 147.8C536.5 135.8 524.9 128 512 128L64 128zM523.3 427.3L486.6 464L523.3 500.7C529.5 506.9 529.5 517.1 523.3 523.3C517.1 529.5 506.9 529.5 500.7 523.3L464 486.6L427.3 523.3C421.1 529.5 410.9 529.5 404.7 523.3C398.5 517.1 398.5 506.9 404.7 500.7L441.4 464L404.7 427.3C398.5 421.1 398.5 410.9 404.7 404.7C410.9 398.5 421.1 398.5 427.3 404.7L464 441.4L500.7 404.7C506.9 398.5 517.1 398.5 523.3 404.7C529.5 410.9 529.5 421.1 523.3 427.3z"/></svg>