<svg xmlns="http://www.w3.org/2000/svg" viewBox="0 0 640 640"><!--! Font Awesome Free 7.0.0 by @fontawesome - https://fontawesome.com License - https://fontawesome.com/license/free (Icons: CC BY 4.0, Fonts: SIL OFL 1.1, Code: MIT License) Copyright 2025 Fonticons, Inc. --><path fill="currentColor" d="M64 128C51.1 128 39.4 135.8 34.4 147.8L305.6 572.6C313.8 576.7 323.5 577.2 332.2 573.6C341.3 569.8 348 562.1 350.7 553C377.1 586.5 418 608.1 464 608.1C543.5 608.1 608 543.6 608 464.1C608 384.6 543.5 320 464 320C418.8 320 378.4 340.9 352 373.5L352 365.3L534.6 182.7C543.8 173.5 546.5 159.8 541.5 147.8C536.5 135.8 524.9 128 512 128L64 128zM448 384C448 375.2 455.2 368 464 368C472.8 368 480 375.2 480 384L480 392L496 392C504.8 392 512 399.2 512 408C512 416.8 504.8 424 496 424L450.2 424C444.6 424 440 428.6 440 434.2C440 439.1 443.5 443.3 448.3 444.2L493.3 452.4C513.3 456 527.9 473.5 527.9 493.9C527.9 517.2 509 536.1 485.7 536.1L479.9 536.1L479.9 544.1C479.9 552.9 472.7 560.1 463.9 560.1C455.1 560.1 447.9 552.9 447.9 544.1L447.9 536.1L431.9 536.1C423.1 536.1 415.9 528.9 415.9 520.1C415.9 511.3 423.1 504.1 431.9 504.1L485.7 504.1C491.3 504.1 495.9 499.5 495.9 493.9C495.9 489 492.4 484.8 487.6 483.9L442.6 475.7C422.6 472.1 408 454.6 408 434.2C408 411.6 425.7 393.2 448 392.1L448 384z"/></svg>