<svg xmlns="http://www.w3.org/2000/svg" viewBox="0 0 640 640"><!--! Font Awesome Free 7.0.0 by @fontawesome - https://fontawesome.com License - https://fontawesome.com/license/free (Icons: CC BY 4.0, Fonts: SIL OFL 1.1, Code: MIT License) Copyright 2025 Fonticons, Inc. --><path fill="currentColor" d="M439.4 96L448 96C483.3 96 512 124.7 512 160L512 512C512 547.3 483.3 576 448 576L192 576C156.7 576 128 547.3 128 512L128 160C128 124.7 156.7 96 192 96L200.6 96C211.6 76.9 232.3 64 256 64L384 64C407.7 64 428.4 76.9 439.4 96zM376 176C389.3 176 400 165.3 400 152C400 138.7 389.3 128 376 128L264 128C250.7 128 240 138.7 240 152C240 165.3 250.7 176 264 176L376 176zM404.4 324.7C411.4 313.5 408 298.7 396.8 291.6C385.6 284.5 370.8 288 363.7 299.2L302.3 397.5L275.3 361.5C267.3 350.9 252.3 348.7 241.7 356.7C231.1 364.7 228.9 379.7 236.9 390.3L284.9 454.3C289.6 460.6 297.2 464.2 305.1 463.9C313 463.6 320.2 459.4 324.4 452.6L404.4 324.6z"/></svg>