<svg xmlns="http://www.w3.org/2000/svg" viewBox="0 0 640 640"><!--! Font Awesome Free 7.0.0 by @fontawesome - https://fontawesome.com License - https://fontawesome.com/license/free (Icons: CC BY 4.0, Fonts: SIL OFL 1.1, Code: MIT License) Copyright 2025 Fonticons, Inc. --><path fill="currentColor" d="M216 64C229.3 64 240 74.7 240 88L240 128L400 128L400 88C400 74.7 410.7 64 424 64C437.3 64 448 74.7 448 88L448 128L480 128C515.3 128 544 156.7 544 192L544 480C544 515.3 515.3 544 480 544L160 544C124.7 544 96 515.3 96 480L96 192C96 156.7 124.7 128 160 128L192 128L192 88C192 74.7 202.7 64 216 64zM216 176L160 176C151.2 176 144 183.2 144 192L144 480C144 488.8 151.2 496 160 496L480 496C488.8 496 496 488.8 496 480L496 192C496 183.2 488.8 176 480 176L216 176zM404.4 292.7L324.4 420.7C320.2 427.4 313 431.6 305.1 432C297.2 432.4 289.6 428.8 284.9 422.4L236.9 358.4C228.9 347.8 231.1 332.8 241.7 324.8C252.3 316.8 267.3 319 275.3 329.6L302.3 365.6L363.7 267.3C370.7 256.1 385.5 252.6 396.8 259.7C408.1 266.8 411.5 281.5 404.4 292.8z"/></svg>