<svg xmlns="http://www.w3.org/2000/svg" viewBox="0 0 640 640"><!--! Font Awesome Free 7.0.0 by @fontawesome - https://fontawesome.com License - https://fontawesome.com/license/free (Icons: CC BY 4.0, Fonts: SIL OFL 1.1, Code: MIT License) Copyright 2025 Fonticons, Inc. --><path fill="currentColor" d="M528 320C528 205.1 434.9 112 320 112C205.1 112 112 205.1 112 320C112 434.9 205.1 528 320 528C434.9 528 528 434.9 528 320zM64 320C64 178.6 178.6 64 320 64C461.4 64 576 178.6 576 320C576 461.4 461.4 576 320 576C178.6 576 64 461.4 64 320zM371.2 320C371.2 291.7 348.3 268.8 320 268.8C291.7 268.8 268.8 291.7 268.8 320C268.8 348.3 291.7 371.2 320 371.2C348.3 371.2 371.2 348.3 371.2 320zM224 320C224 267 267 224 320 224C373 224 416 267 416 320C416 373 373 416 320 416C267 416 224 373 224 320z"/></svg>