<?xml version="1.0" encoding="UTF-8" standalone="no"?>
<svg
   xmlns:dc="http://purl.org/dc/elements/1.1/"
   xmlns:cc="http://creativecommons.org/ns#"
   xmlns:rdf="http://www.w3.org/1999/02/22-rdf-syntax-ns#"
   xmlns:svg="http://www.w3.org/2000/svg"
   xmlns="http://www.w3.org/2000/svg"
   xmlns:sodipodi="http://sodipodi.sourceforge.net/DTD/sodipodi-0.dtd"
   xmlns:inkscape="http://www.inkscape.org/namespaces/inkscape"
   inkscape:version="1.0 (4035a4f, 2020-05-01)"
   height="4016.97"
   width="4060.6797"
   inkscape:export-ydpi="11.949305"
   inkscape:export-xdpi="11.949305"
   inkscape:export-filename="/Users/thomas/dev/allsky/config_repo/overlay/images/compass-blue.png"
   sodipodi:docname="compass.svg"
   version="1.1"
   viewBox="0 0 4060.6796 4016.9699"
   id="Layer_1">
  <metadata
     id="metadata894">
    <rdf:RDF>
      <cc:Work
         rdf:about="">
        <dc:format>image/svg+xml</dc:format>
        <dc:type
           rdf:resource="http://purl.org/dc/dcmitype/StillImage" />
        <dc:title></dc:title>
      </cc:Work>
    </rdf:RDF>
  </metadata>
  <sodipodi:namedview
     fit-margin-bottom="0"
     fit-margin-right="0"
     fit-margin-left="0"
     fit-margin-top="0"
     inkscape:current-layer="Layer_1"
     inkscape:window-maximized="0"
     inkscape:window-y="25"
     inkscape:window-x="0"
     inkscape:cy="2286.8027"
     inkscape:cx="2124.438"
     inkscape:zoom="0.14253081"
     showgrid="false"
     id="namedview892"
     inkscape:window-height="911"
     inkscape:window-width="1549"
     inkscape:pageshadow="2"
     inkscape:pageopacity="0"
     guidetolerance="10"
     gridtolerance="10"
     objecttolerance="10"
     borderopacity="1"
     bordercolor="#666666"
     pagecolor="#ffffff" />
  <defs
     id="defs835">
    <style
       id="style833">.cls-1{font-family:Montserrat-Bold, Montserrat;font-size:350px;font-weight:700;}.cls-1,.cls-2,.cls-3{fill:#999;}.cls-4{fill:#fff;}.cls-4,.cls-3{fill-rule:evenodd;}</style>
  </defs>
  <path
     inkscape:export-ydpi="11.949305"
     inkscape:export-xdpi="11.949305"
     inkscape:export-filename="/Users/thomas/dev/allsky/config_repo/overlay/images/compass-grey.png"
     style="fill:#999999;fill-opacity:1"
     id="path837"
     d="m 2111.7837,898.23 c 239.95,36.2 454.5,149.16 618.55,312.92 162.59,162.59 274.98,375.39 312.05,613 l -195.29,-35.61 c -39.41,-172.22 -126.98,-326.06 -247.54,-446.62 -122.02,-121.73 -277.9,-209.88 -452.16,-249 l -35.61,-194.7 z m 932.64,1256.37 c -34.45,243.74 -148.29,462.09 -314.09,628.18 -164.05,163.76 -378.6,276.73 -618.55,312.92 l 35.61,-194.99 c 174.27,-38.82 330.15,-126.98 452.16,-248.7 124.06,-124.35 213.09,-283.44 251.04,-461.8 z m -1267.17,941.11 c -239.95,-36.2 -454.79,-149.16 -618.55,-312.92 C 993.77371,2617.57 880.22371,2400.98 844.90371,2158.98 l 194.40999,35.61 c 38.24,176.31 126.98,334.23 250.16,457.42 122.02,121.73 277.6,209.88 451.87,248.7 l 35.9,194.99 z M 847.23371,1820.08 c 37.66,-235.86 149.75,-447.2 311.45999,-608.92 163.76,-163.76 378.6,-276.73 618.55,-312.92 l -35.9,194.7 c -174.27,39.12 -329.86,127.27 -451.87,249 -119.68,119.68 -206.67,272.06 -246.66,442.24 z"
     class="cls-2" />
  <polygon
     inkscape:export-ydpi="11.949305"
     inkscape:export-xdpi="11.949305"
     inkscape:export-filename="/Users/thomas/dev/allsky/config_repo/overlay/images/compass-grey.png"
     style="fill:#999999;fill-opacity:1"
     transform="translate(-109.65629,-52.5)"
     id="polygon839"
     points="1444.67,2658.97 1865.31,2049.47 1444.67,1439.97 2054.17,1860.61 2663.38,1439.97 2243.04,2049.47 2663.38,2658.97 2054.17,2238.33 "
     class="cls-3" />
  <polygon
     inkscape:export-ydpi="11.949305"
     inkscape:export-xdpi="11.949305"
     inkscape:export-filename="/Users/thomas/dev/allsky/config_repo/overlay/images/compass-red.png"
     transform="translate(-109.65629,-52.5)"
     id="polygon853"
     points="2054.17,2049.47 2054.17,2206.52 1525.82,2577.82 "
     class="cls-4" />
  <polygon
     inkscape:export-ydpi="11.949305"
     inkscape:export-xdpi="11.949305"
     inkscape:export-filename="/Users/thomas/dev/allsky/config_repo/overlay/images/compass-red.png"
     transform="translate(-109.65629,-52.5)"
     id="polygon855"
     points="2054.17,2049.47 1896.84,2049.47 1525.82,1521.12 "
     class="cls-4" />
  <polygon
     inkscape:export-ydpi="11.949305"
     inkscape:export-xdpi="11.949305"
     inkscape:export-filename="/Users/thomas/dev/allsky/config_repo/overlay/images/compass-red.png"
     transform="translate(-109.65629,-52.5)"
     id="polygon841"
     points="2054.17,2049.47 2054.17,1892.42 2582.53,1521.12 "
     class="cls-4" />
  <polygon
     inkscape:export-ydpi="11.949305"
     inkscape:export-xdpi="11.949305"
     inkscape:export-filename="/Users/thomas/dev/allsky/config_repo/overlay/images/compass-red.png"
     transform="translate(-109.65629,-52.5)"
     id="polygon843"
     points="2054.17,2049.47 2211.22,2049.47 2582.53,2577.82 "
     class="cls-4" />
  <polygon
     inkscape:export-ydpi="11.949305"
     inkscape:export-xdpi="11.949305"
     inkscape:export-filename="/Users/thomas/dev/allsky/config_repo/overlay/images/compass-grey.png"
     style="fill:#999999;fill-opacity:1"
     transform="translate(-109.65629,-52.5)"
     id="polygon845"
     points="2211.22,2049.47 2582.53,1521.12 2054.17,2049.47 "
     class="cls-3" />
  <polygon
     inkscape:export-ydpi="11.949305"
     inkscape:export-xdpi="11.949305"
     inkscape:export-filename="/Users/thomas/dev/allsky/config_repo/overlay/images/compass-grey.png"
     style="fill:#999999;fill-opacity:1"
     transform="translate(-109.65629,-52.5)"
     id="polygon847"
     points="2054.17,2206.52 2582.53,2577.82 2054.17,2049.47 "
     class="cls-3" />
  <polygon
     inkscape:export-ydpi="11.949305"
     inkscape:export-xdpi="11.949305"
     inkscape:export-filename="/Users/thomas/dev/allsky/config_repo/overlay/images/compass-grey.png"
     style="fill:#999999;fill-opacity:1"
     transform="translate(-109.65629,-52.5)"
     id="polygon849"
     points="1896.84,2049.47 1525.82,2577.82 2054.17,2049.47 "
     class="cls-3" />
  <polygon
     inkscape:export-ydpi="11.949305"
     inkscape:export-xdpi="11.949305"
     inkscape:export-filename="/Users/thomas/dev/allsky/config_repo/overlay/images/compass-grey.png"
     style="fill:#999999;fill-opacity:1"
     transform="translate(-109.65629,-52.5)"
     id="polygon851"
     points="2054.17,1892.42 1525.82,1521.12 2054.17,2049.47 "
     class="cls-3" />
  <polygon
     inkscape:export-ydpi="11.949305"
     inkscape:export-xdpi="11.949305"
     inkscape:export-filename="/Users/thomas/dev/allsky/config_repo/overlay/images/compass-grey.png"
     style="fill:#999999;fill-opacity:1"
     transform="translate(-109.65629,-52.5)"
     id="polygon857"
     points="2054.17,3790.11 1784.16,2319.19 313.53,2049.47 1784.16,1779.75 2054.17,308.83 2323.9,1779.75 3794.82,2049.47 2323.9,2319.19 "
     class="cls-3" />
  <polygon
     inkscape:export-ydpi="11.949305"
     inkscape:export-xdpi="11.949305"
     inkscape:export-filename="/Users/thomas/dev/allsky/config_repo/overlay/images/compass-grey.png"
     style="fill:#999999;fill-opacity:1"
     transform="translate(-109.65629,-52.5)"
     id="polygon863"
     points="2054.17,2049.47 2278.65,1824.99 2054.17,540.31 "
     class="cls-3" />
  <polygon
     inkscape:export-ydpi="11.949305"
     inkscape:export-xdpi="11.949305"
     inkscape:export-filename="/Users/thomas/dev/allsky/config_repo/overlay/images/compass-grey.png"
     style="fill:#999999;fill-opacity:1"
     transform="translate(-109.65629,-52.5)"
     id="polygon865"
     points="2054.17,2049.47 2278.65,2273.95 3563.33,2049.47 "
     class="cls-3" />
  <polygon
     inkscape:export-ydpi="11.949305"
     inkscape:export-xdpi="11.949305"
     inkscape:export-filename="/Users/thomas/dev/allsky/config_repo/overlay/images/compass-grey.png"
     style="fill:#999999;fill-opacity:1"
     transform="translate(-109.65629,-52.5)"
     id="polygon867"
     points="2054.17,2049.47 1829.7,2273.95 2054.17,3558.63 "
     class="cls-3" />
  <polygon
     inkscape:export-ydpi="11.949305"
     inkscape:export-xdpi="11.949305"
     inkscape:export-filename="/Users/thomas/dev/allsky/config_repo/overlay/images/compass-grey.png"
     style="fill:#999999;fill-opacity:1"
     transform="translate(-109.65629,-52.5)"
     id="polygon869"
     points="2054.17,2049.47 1829.7,1824.99 545.01,2049.47 "
     class="cls-3" />
  <polygon
     transform="translate(-109.65629,-52.5)"
     id="polygon859"
     points="2054.17,2049.47 1829.7,1824.99 2054.17,540.31 "
     class="cls-4" />
  <polygon
     transform="translate(-109.65629,-52.5)"
     id="polygon861"
     points="2054.17,2049.47 2278.65,1824.99 3563.33,2049.47 "
     class="cls-4" />
  <polygon
     transform="translate(-109.65629,-52.5)"
     id="polygon871"
     points="2054.17,2049.47 2278.65,2273.95 2054.17,3558.63 "
     class="cls-4" />
  <polygon
     transform="translate(-109.65629,-52.5)"
     id="polygon873"
     points="2054.17,2049.47 1829.7,2273.95 545.01,2049.47 "
     class="cls-4" />
  <text
     inkscape:export-ydpi="11.949305"
     inkscape:export-xdpi="11.949305"
     inkscape:export-filename="/Users/thomas/dev/allsky/config_repo/overlay/images/compass-grey.png"
     x="-29.049999"
     style="fill:#999999;fill-opacity:1;stroke-width:0.883176;"
     y="1888.0273"
     id="text877"
     transform="scale(0.88317611,1.132277)"
     class="cls-1"><tspan
       style="fill:#999999;fill-opacity:1;stroke-width:0.883176;"
       id="tspan875"
       y="1888.0273"
       x="-29.049999">E</tspan></text>
  <text
     inkscape:export-ydpi="11.949305"
     inkscape:export-xdpi="11.949305"
     inkscape:export-filename="/Users/thomas/dev/allsky/config_repo/overlay/images/compass-grey.png"
     style="fill:#999999;fill-opacity:1;stroke-width:0.916759;"
     transform="scale(0.91675867,1.0907996)"
     y="1951.5681"
     x="4030.0381"
     id="text881"
     class="cls-1"><tspan
       style="fill:#999999;fill-opacity:1;stroke-width:0.916759;"
       id="tspan879"
       y="1951.5681"
       x="4030.0381">W</tspan></text>
  <text
     inkscape:export-ydpi="11.949305"
     inkscape:export-xdpi="11.949305"
     inkscape:export-filename="/Users/thomas/dev/allsky/config_repo/overlay/images/compass-grey.png"
     style="fill:#999999;fill-opacity:1;"
     y="4012.77"
     x="1832.5938"
     id="text885"
     class="cls-1"><tspan
       style="fill:#999999;fill-opacity:1;"
       id="tspan883"
       y="4012.77"
       x="1832.5938">S</tspan></text>
  <text
     inkscape:export-ydpi="11.949305"
     inkscape:export-xdpi="11.949305"
     inkscape:export-filename="/Users/thomas/dev/allsky/config_repo/overlay/images/compass-grey.png"
     style="fill:#999999;fill-opacity:1;"
     y="245"
     x="1800.5037"
     id="text889"
     class="cls-1"><tspan
       style="fill:#999999;fill-opacity:1;"
       id="tspan887"
       y="245"
       x="1800.5037">N</tspan></text>
</svg>
