<svg xmlns="http://www.w3.org/2000/svg" viewBox="0 0 576 512"><!--! Font Awesome Free 7.0.0 by @fontawesome - https://fontawesome.com License - https://fontawesome.com/license/free (Icons: CC BY 4.0, Fonts: SIL OFL 1.1, Code: MIT License) Copyright 2025 Fonticons, Inc. --><path fill="currentColor" d="M224.1 97.1l0 49.6 .5 .5c6.5-82.4 75.4-147.2 159.5-147.2 20.1 0 39.4 3.7 57.1 10.5 10 3.8 11.8 16.5 4.3 24.1l-88.7 88.7c-3 3-4.7 7.1-4.7 11.3l0 41.4c0 8.8 7.2 16 16 16l41.4 0c4.2 0 8.3-1.7 11.3-4.7l88.7-88.7c7.6-7.6 20.3-5.7 24.1 4.3 6.8 17.7 10.5 37 10.5 57.1 0 60.6-33.7 113.4-83.5 140.5l81.5 81.5c18.7 18.7 18.7 49.1 0 67.9l-60.1 60.1c-18.7 18.7-49.1 18.7-67.9 0L288.1 384c-27.4-27.4-33.6-67.9-18.5-101.3l-90.7-90.7-49.6 0c-10.7 0-20.7-5.3-26.6-14.2L23.4 58.9c-4.2-6.3-3.4-14.8 2-20.2L70.8-6.7c5.4-5.4 13.8-6.2 20.2-2L209.9 70.5c8.9 5.9 14.2 15.9 14.2 26.6zm-8.5 199.5c-6.3 37 2.4 76.1 26.4 107.4L147 498.9c-28.1 28.1-73.7 28.1-101.8 0s-28.1-73.7 0-101.8l135.4-135.4 35 35z"/></svg>